<svg xmlns="http://www.w3.org/2000/svg" width="75.481" height="23.623" viewBox="0 0 75.481 23.623">
  <g id="eura-7" transform="translate(-362.58 -279.492)">
    <g class="eura">
    <path id="Path_71" data-name="Path 71" d="M427.78,287.36a5.907,5.907,0,0,1,4.065,1.479,4.966,4.966,0,0,1,1.3,3.589c0,2.624,0,5.248,0,7.873q-1.6,0-3.2,0c-.007-.518,0-1.036,0-1.553a4.335,4.335,0,0,1-1.3,1.281,5.681,5.681,0,0,1-3.561.584,4.542,4.542,0,0,1-2.912-1.241,3.977,3.977,0,0,1-.949-2.813,3.721,3.721,0,0,1,.921-2.554,4.656,4.656,0,0,1,2.422-1.313,11.1,11.1,0,0,1,2.726-.228h2.69a3.1,3.1,0,0,0-.826-2.049,3,3,0,0,0-2.493-.875H424.02l-.971-2.179S426.387,287.319,427.78,287.36ZM424.772,295a2.752,2.752,0,0,0-.368,2.232,2.107,2.107,0,0,0,1.436,1.545,3.4,3.4,0,0,0,2.663-.338,3.019,3.019,0,0,0,1.245-1.632,9.476,9.476,0,0,0,.2-2.661c-1.045-.034-2.092,0-3.138,0A2.514,2.514,0,0,0,424.772,295Z" transform="translate(-20.687 -2.769)" fill="#007ac2"/>
    <path id="Path_72" data-name="Path 72" d="M385.7,287.582h3.41s-.016,5.546,0,8.308a3.3,3.3,0,0,0,.655,2.214,2.375,2.375,0,0,0,2.18.544,3.5,3.5,0,0,0,2.912-3.411v-7.655h3.384v12.79h-3.416v-1.55a8.7,8.7,0,0,1-1.956,1.508,5.879,5.879,0,0,1-4.208.157,4.192,4.192,0,0,1-2.489-2.353,10.7,10.7,0,0,1-.476-2.7Z" transform="translate(-8.153 -2.854)" fill="#007ac2"/>
    <path id="Path_73" data-name="Path 73" d="M434.98,295.679" transform="translate(-25.539 -5.71)" fill="#6e7475" stroke="#000" stroke-miterlimit="10" stroke-width="0.25"/>
    <path id="Path_74" data-name="Path 74" d="M439.649,295.679" transform="translate(-27.186 -5.71)" fill="#6e7475" stroke="#000" stroke-miterlimit="10" stroke-width="0.25"/>
    <path id="Path_76" data-name="Path 76" d="M411.884,292.414a3.26,3.26,0,0,1,.8-2.051,3,3,0,0,1,2.493-.875h1.674l.971-2.179s-2.366-.041-3.759,0A5.911,5.911,0,0,0,410,288.787a4.968,4.968,0,0,0-1.3,3.59q-.007,3.936,0,7.873c1.065,0,3.164,0,3.164,0v-5.937C411.86,293.721,411.826,293.058,411.884,292.414Z" transform="translate(-16.267 -2.751)" fill="#007ac2"/>
    <path id="Path_77" data-name="Path 77" d="M373.559,297.362a5.061,5.061,0,0,1-.687.523,5.855,5.855,0,0,1-3.436.851,3.217,3.217,0,0,1-2.258-1.136,6.02,6.02,0,0,1-1.157-4.057,5.224,5.224,0,0,1,1.414-3.872,3.465,3.465,0,0,1,.5-.376,3.25,3.25,0,0,1,3.887.4,4.186,4.186,0,0,1,1.2,2.67c-2.278,0-6.317,0-6.317,0l.835,1.862s5.565,0,8.606,0a7.685,7.685,0,0,0-1.776-5.3,6.11,6.11,0,0,0-4.339-1.883,7.5,7.5,0,0,0-4.747,1.286,6.42,6.42,0,0,0-2.692,4.751,8.947,8.947,0,0,0,.162,2.522,6.138,6.138,0,0,0,2.59,3.735,8.008,8.008,0,0,0,5.579,1.086,6.566,6.566,0,0,0,3.32-1.55Z" transform="translate(0 -2.658)" fill="#007ac2"/>
    </g>
    <path class="seven" id="Path_75" data-name="Path 75" d="M454.512,279.492a11.8,11.8,0,0,0-4.155,22.857l6.9-15.375-10.382-.005,1.074-2.391,14.619,0L454.191,303.1c.108,0,.213.016.321.016a11.812,11.812,0,0,0,0-23.623Z" transform="translate(-28.262 0)" fill="#a22923"/>
  </g>
</svg>
